<?xml version="1.0" encoding="utf-8"?>
<!-- Generator: Adobe Illustrator 18.1.1, SVG Export Plug-In . SVG Version: 6.00 Build 0)  -->
<svg version="1.1" id="Calque_1" xmlns="http://www.w3.org/2000/svg" xmlns:xlink="http://www.w3.org/1999/xlink" x="0px" y="0px"
	 viewBox="0 0 275 45" enable-background="new 0 0 275 45" xml:space="preserve">
<path fill-rule="evenodd" clip-rule="evenodd" fill="#FFFFFF" d="M58.6,22.6c-0.8-1.7-1.8-3.1-3.1-4.3c-1.3-1.2-2.8-2-4.6-2.6
	c-1.8-0.6-3.7-0.9-5.7-0.9c-2,0-3.9,0.3-5.7,0.9c-1.8,0.6-3.3,1.5-4.6,2.6c-1.3,1.2-2.4,2.6-3.1,4.3c-0.8,1.7-1.1,3.6-1.1,5.7
	c0,1.8,0.3,3.5,0.9,5.2c0.6,1.6,1.5,3.1,2.7,4.3c1.2,1.2,2.7,2.2,4.5,3c1.8,0.7,4,1.1,6.4,1.1c2.5,0,4.7-0.4,6.5-1.2
	c1.8-0.8,3.3-1.8,4.5-3c1.2-1.2,2.1-2.7,2.6-4.3c0.6-1.6,0.9-3.3,0.9-5v0C59.8,26.1,59.4,24.2,58.6,22.6L58.6,22.6z M54.4,19.5
	c1.1,1,2.1,2.3,2.7,3.8c0.7,1.5,1,3.2,1,5.1c0,1.6-0.3,3.1-0.8,4.5c-0.5,1.4-1.3,2.7-2.4,3.8c-1.1,1.1-2.4,2-4,2.6
	c-1.6,0.7-3.5,1-5.6,1h0c-2.2,0-4.1-0.3-5.7-1c-1.6-0.7-3-1.5-4-2.6c-1.1-1.1-1.8-2.4-2.4-3.8c-0.5-1.4-0.8-2.9-0.8-4.5
	c0-1.9,0.3-3.6,1-5.1c0.7-1.5,1.6-2.7,2.7-3.8c1.1-1,2.5-1.8,4.1-2.3c1.6-0.5,3.3-0.8,5.1-0.8c1.8,0,3.5,0.3,5,0.8
	C51.9,17.7,53.2,18.5,54.4,19.5z"/>
<path fill-rule="evenodd" clip-rule="evenodd" fill="#FFFFFF" d="M23.1,17.3c-0.7-0.5-1.4-0.9-2.2-1.2c-1.2-0.5-2.4-0.9-3.7-1
	c-1.3-0.2-2.6-0.2-4-0.2c-1.9,0-3.5,0.1-5,0.4c-1.5,0.2-2.7,0.6-3.8,1.1c-1.1,0.5-1.9,1.1-2.5,1.9C1.4,19,1.1,19.9,1.1,21
	c0,0.9,0.2,1.7,0.6,2.3c0.4,0.7,1,1.3,1.7,1.8c0.5,0.3,1,0.6,1.5,0.9c0.5,0.2,1.1,0.4,1.9,0.6c0.7,0.2,1.6,0.4,2.7,0.6
	c1.1,0.2,2.4,0.4,3.9,0.6l3.9,0.7c1.1,0.2,2,0.4,2.7,0.6c0.7,0.2,1.3,0.4,1.8,0.7c0.5,0.2,0.9,0.5,1.3,0.8c0.5,0.5,0.9,1,1.2,1.7
	c0.2,0.6,0.4,1.2,0.4,1.8c0,1.7-0.8,3.1-2.4,4.1c-1.1,0.7-2.4,1.3-4,1.6c-1.5,0.3-3.1,0.5-4.6,0.5c-3,0-5.5-0.4-7.5-1.2
	c-2-0.8-3.6-1.7-4.6-2.9l-1.2,1.2c0.8,0.7,1.6,1.4,2.5,1.9c0.8,0.6,1.8,1,2.9,1.3c1.1,0.3,2.4,0.6,3.7,0.9c1.4,0.2,2.8,0.3,4.4,0.3
	c2.1,0,3.9-0.2,5.5-0.6c1.6-0.4,2.9-1,4-1.7c1-0.8,1.8-1.6,2.3-2.4c0.5-0.8,0.8-1.9,0.8-3.1c0-0.9-0.2-1.7-0.6-2.6
	c-0.4-0.8-0.9-1.5-1.6-2c-0.5-0.4-1-0.7-1.5-1c-0.6-0.3-1.2-0.5-2-0.8c-0.8-0.2-1.7-0.4-2.8-0.6c-1.1-0.2-2.4-0.4-3.9-0.7
	c-1.7-0.3-3-0.5-4.1-0.7c-1.1-0.2-1.9-0.4-2.6-0.5c-0.7-0.2-1.2-0.4-1.7-0.6C5,24.3,4.6,24,4.2,23.7c-0.5-0.4-0.9-0.9-1.1-1.3
	C2.9,22,2.8,21.5,2.8,21c0-0.8,0.2-1.4,0.6-1.9c0.4-0.5,1-1,1.7-1.4c1-0.5,2.2-0.9,3.7-1.1c1.4-0.2,2.9-0.3,4.4-0.3
	c2.8,0,5.1,0.4,6.8,1.1c1.7,0.7,2.9,1.7,3.7,2.8l1.3-1.1C24.4,18.4,23.7,17.7,23.1,17.3z"/>
<path fill-rule="evenodd" clip-rule="evenodd" fill="#FFFFFF" d="M265.2,17.1v14.2c0,1.1,0.2,2.3,0.7,3.3c0.5,0.8,1.1,1.5,2,2
	c0.9,0.5,1.9,0.8,2.9,1c1.1,0.2,2.3,0.3,3.4,0.3c0.1,0,0.2,0,0.3,0l0.6,0v4.2l-0.5,0c-0.1,0-0.3,0-0.4,0c-1.4,0-2.7-0.1-4.1-0.3
	c-1.5-0.2-3-0.7-4.3-1.5c-1.4-0.8-2.6-1.9-3.5-3.3c-1.1-1.7-1.4-3.7-1.4-5.7c0-8.5,0-17,0-25.5V5.3h4.4v7.7h9.9v4.1H265.2z"/>
<path fill-rule="evenodd" clip-rule="evenodd" fill="#FFFFFF" d="M232.8,21.1v20.4h-4.4V12.9h4.4l0,1.2l0,1.5l0,0.5
	c1.4-0.9,2.9-1.7,4.5-2.3c2.3-0.9,4.7-1.4,7.1-1.4c2.9,0,5.9,0.7,8,2.9c0.8,0.9,1.5,1.8,1.9,3c0.5,1.2,0.6,2.6,0.6,3.9v19.5h-4.4
	V22.1c0-0.8-0.1-1.5-0.3-2.3c-0.2-0.6-0.5-1.2-0.9-1.6c-0.5-0.5-1.2-0.8-1.8-1.1c-0.9-0.4-2.2-0.5-3.2-0.5c-1.9,0-3.9,0.5-5.6,1.2
	c-0.5,0.2-1,0.4-1.5,0.6c-0.6,0.3-1.1,0.6-1.6,0.9c-0.5,0.3-1.1,0.7-1.6,1L232.8,21.1z"/>
<path fill-rule="evenodd" clip-rule="evenodd" fill="#FFFFFF" d="M196.8,28.8c0.1,1.4,0.5,2.8,1.2,4c0.7,1.2,1.5,2.2,2.6,3
	c1,0.8,2.1,1.3,3.4,1.6c1.2,0.3,2.4,0.5,3.6,0.5c1.4,0,2.7-0.1,4-0.3c1.4-0.2,2.7-0.5,4-0.8c1.1-0.3,2.2-0.5,3.3-0.9
	c0.6-0.2,1.3-0.4,1.9-0.6l0.7-0.3l0.3,4.3l-1.8,0.6c-1.2,0.3-2.3,0.6-3.5,0.9c-1.5,0.4-3,0.7-4.5,0.9c-1.4,0.3-2.9,0.4-4.4,0.4
	c-2,0-4-0.3-5.8-1c-2-0.6-3.7-1.7-5.2-3.1c-1.4-1.3-2.4-2.9-3.1-4.7c-0.9-2-1.2-4.3-1.2-6.5c0-2.1,0.3-4.2,1.2-6.1
	c0.8-1.8,1.9-3.4,3.4-4.6c1.4-1.2,3-2.1,4.7-2.8c1.9-0.7,4-1,6-1c2,0,3.9,0.4,5.7,1.2c1.8,0.8,3.4,1.9,4.8,3.4
	c1.2,1.3,2.1,2.9,2.8,4.6c0.8,2.1,1.1,4.5,1.1,6.7v0.6H196.8L196.8,28.8z M217.3,24.7c-0.2-0.9-0.5-1.8-0.9-2.6
	c-0.5-1.1-1.2-2-2.1-2.8c-0.9-0.8-1.9-1.5-3-1.9c-1.2-0.5-2.4-0.7-3.7-0.7c-1.4,0-2.9,0.2-4.2,0.7c-1.2,0.4-2.3,1.1-3.3,1.9
	c-0.9,0.8-1.7,1.7-2.3,2.8c-0.5,0.8-0.8,1.7-0.9,2.7H217.3z"/>
<rect x="148.3" y="3.7" fill-rule="evenodd" clip-rule="evenodd" fill="#FFFFFF" width="4.4" height="37.8"/>
<path fill-rule="evenodd" clip-rule="evenodd" fill="#FFFFFF" d="M91.5,16.9h11.3v-1.6H91.5V7.7h-1.7c0,14.3,0,3.2,0,24.7
	c0,2,0.4,3.7,1.2,4.9c0.8,1.2,1.8,2.2,3,2.9c1.2,0.7,2.5,1.1,3.9,1.3c1.4,0.2,2.7,0.3,3.9,0.3c0.4,0,0.7,0,1.1,0v-1.6
	c-0.3,0-0.7,0-1,0c-1.2,0-2.4-0.1-3.6-0.3c-1.2-0.2-2.3-0.6-3.3-1.2c-1-0.6-1.8-1.4-2.4-2.4c-0.6-1-0.9-2.4-0.9-4V16.9z"/>
<path fill-rule="evenodd" clip-rule="evenodd" fill="#FFFFFF" d="M76.8,5.4C77.9,5.1,79.1,5,80.4,5c2.3,0,4.3,0.3,6,0.9l0.6-1.5
	c-1-0.4-2-0.6-3.1-0.8c-1.1-0.1-2.2-0.2-3.4-0.2c-3.2,0-5.8,0.6-7.7,1.7c-2.6,1.5-3.8,3.9-3.8,7.1v3h-6.2v1.6h6.2v24h1.7V24.6v-7.6
	v-1.6v-1.1v-1.8c0-1.4,0.3-2.6,0.9-3.6c0.6-1,1.3-1.8,2.2-2.3C74.6,6,75.6,5.6,76.8,5.4L76.8,5.4z M75.2,16.9v-1.6h8.4v1.6H75.2z"/>
<polygon fill-rule="evenodd" clip-rule="evenodd" fill="#FFFFFF" points="113.5,22.6 129,7.2 132.1,4.1 129,1 107.3,22.6 129,44.3 
	132.1,41.2 129,38.1 "/>
<polygon fill-rule="evenodd" clip-rule="evenodd" fill="#FFFFFF" points="129,25.7 132.1,22.6 135.2,19.5 138.2,16.5 141.3,13.4 
	138.2,10.3 135.2,13.4 132.1,16.5 129,19.5 125.9,22.6 "/>
<path fill-rule="evenodd" clip-rule="evenodd" fill="#FFFFFF" d="M160.7,36.3c0.4,1.1,1,2.1,1.9,3c2.1,2.2,5.1,2.9,8,2.9
	c2.4,0,4.8-0.5,7.1-1.4c1.6-0.6,3.1-1.4,4.5-2.3l0,0.5l0,1.5l0,1.2h4.4V12.9h-4.4v20.4l-1.2,0.8c-0.5,0.4-1,0.7-1.6,1
	c-0.5,0.3-1.1,0.6-1.6,0.9c-0.5,0.2-1,0.5-1.5,0.6c-1.8,0.6-3.8,1.2-5.6,1.2c-1,0-2.3-0.1-3.2-0.5c-0.6-0.3-1.3-0.6-1.8-1.1
	c-0.5-0.5-0.8-1-0.9-1.6c-0.2-0.7-0.3-1.5-0.3-2.3V12.9h-4.4v19.5C160.1,33.7,160.2,35.1,160.7,36.3z"/>
</svg>
